<svg width="831" height="625" viewBox="0 0 831 625" fill="none" xmlns="http://www.w3.org/2000/svg">
<g id="login" clip-path="url(#clip0_25_222)">
<g id="freepik--background-complete--inject-65">
<path id="Vector" d="M959 588.996H0V589.476H959V588.996Z" fill="#EBEBEB"/>
<path id="Vector_2" d="M862.908 619.857H799.384V620.336H862.908V619.857Z" fill="#EBEBEB"/>
<path id="Vector_3" d="M797.466 602.058H760.66V602.537H797.466V602.058Z" fill="#EBEBEB"/>
<path id="Vector_4" d="M183.457 605.28H100.618V605.76H183.457V605.28Z" fill="#EBEBEB"/>
<path id="Vector_5" d="M212.687 605.28H200.546V605.76H212.687V605.28Z" fill="#EBEBEB"/>
<path id="Vector_6" d="M431.838 613.374H252.159V613.853H431.838V613.374Z" fill="#EBEBEB"/>
<path id="Vector_7" d="M156.432 556.275C155.972 550.79 156.72 543.693 163.126 541.583C173.963 538.016 180.388 529.615 180.024 520.121C179.659 510.627 191.071 501.382 199.625 510.281C208.18 519.181 207.048 503.434 218.46 499.617C229.872 495.801 239.558 505.065 236.413 513.561C233.267 522.058 244.564 527.332 258.048 520.121C271.531 512.909 286.357 526.028 283.5 536.29C280.642 546.551 282.982 547.702 291.517 544.288C298.422 541.526 309.699 547.318 310.946 556.275H156.432Z" fill="#E0E0E0"/>
<path id="Vector_8" d="M694.45 556.275C693.932 551.94 694.163 545.611 699.533 543.827C707.953 541.046 712.959 534.525 712.671 527.16C712.384 519.795 721.245 512.621 727.881 519.488C734.517 526.354 733.635 514.175 742.496 511.202C751.357 508.229 758.876 515.441 756.44 522.02C754.004 528.598 762.77 532.722 773.223 527.122C783.676 521.521 795.203 531.706 792.997 539.684C790.791 547.663 792.594 548.546 799.211 545.88C804.831 543.636 814.153 548.699 814.364 556.237L694.45 556.275Z" fill="#E0E0E0"/>
<path id="Vector_9" d="M749.593 556.275H552.595C549.833 547.03 556.987 535.944 564.793 534.391C574.383 532.473 583.973 515.594 584.491 504.853C585.009 494.113 602.252 461.066 629.104 481.473C655.956 501.881 647.804 484.465 667.215 478.73C686.625 472.995 698.9 489.49 690.384 501.881C690.384 501.881 709.89 496.99 717.927 515.211C725.963 533.432 717.927 544.748 717.927 544.748C717.927 544.748 742.534 544.115 749.593 556.275Z" fill="#E0E0E0"/>
<path id="Vector_10" d="M391.752 39.2398C391.756 37.788 391.418 36.3556 390.767 35.0581C390.116 33.7606 389.169 32.6343 388.002 31.7701C386.836 30.9059 385.482 30.328 384.051 30.083C382.62 29.838 381.152 29.9327 379.764 30.3595C380.155 27.5739 379.946 24.7368 379.15 22.0388C378.355 19.3408 376.991 16.8442 375.15 14.7168C373.31 12.5894 371.036 10.8804 368.48 9.70464C365.925 8.52883 363.148 7.91341 360.335 7.89972C359.124 7.89773 357.917 8.01335 356.729 8.24496C354.797 5.06381 351.882 2.59779 348.424 1.21931C344.967 -0.159165 341.155 -0.375232 337.564 0.603737C333.973 1.58271 330.798 3.70356 328.518 6.64598C326.239 9.58841 324.979 13.1926 324.928 16.9143H324.641C320.449 16.9143 316.429 18.5794 313.465 21.5433C310.502 24.5072 308.836 28.5271 308.836 32.7186C308.836 36.9102 310.502 40.9301 313.465 43.894C316.429 46.8579 320.449 48.523 324.641 48.523H382.679C385.108 48.4776 387.421 47.4784 389.119 45.7413C390.816 44.0042 391.762 41.6687 391.752 39.2398Z" fill="#F5F5F5"/>
<path id="Vector_11" d="M735.515 93.8645C735.515 92.4214 735.178 90.9982 734.531 89.7083C733.884 88.4184 732.945 87.2975 731.788 86.435C730.631 85.5724 729.289 84.9921 727.868 84.7402C726.447 84.4883 724.987 84.5718 723.604 84.9841C724.018 82.1965 723.825 79.3524 723.039 76.646C722.253 73.9396 720.893 71.4347 719.05 69.3025C717.207 67.1702 714.926 65.4608 712.362 64.291C709.798 63.1212 707.012 62.5186 704.194 62.5244C702.977 62.5215 701.763 62.6371 700.569 62.8696C698.636 59.6884 695.721 57.2224 692.264 55.8439C688.807 54.4655 684.995 54.2494 681.404 55.2284C677.813 56.2073 674.638 58.3282 672.358 61.2706C670.079 64.213 668.819 67.8172 668.768 71.5389H668.5C664.308 71.5389 660.288 73.204 657.324 76.1679C654.36 79.1318 652.695 83.1517 652.695 87.3433C652.695 91.5348 654.36 95.5547 657.324 98.5186C660.288 101.482 664.308 103.148 668.5 103.148H726.519C728.934 103.082 731.228 102.075 732.909 100.34C734.59 98.6045 735.526 96.2804 735.515 93.8645Z" fill="#F5F5F5"/>
<path id="Vector_12" d="M525.283 66.9933C525.283 65.4672 524.677 64.0037 523.597 62.9246C522.518 61.8455 521.055 61.2393 519.529 61.2393C518.971 61.2377 518.415 61.3152 517.879 61.4695C517.973 60.886 518.018 60.2958 518.013 59.7049C518.013 58.103 517.698 56.5167 517.085 55.0367C516.472 53.5568 515.573 52.212 514.441 51.0793C513.308 49.9465 511.963 49.048 510.483 48.435C509.003 47.8219 507.417 47.5064 505.815 47.5064C505.062 47.5083 504.311 47.5789 503.571 47.7174C502.372 45.7315 500.559 44.1904 498.406 43.3279C496.253 42.4654 493.877 42.3284 491.639 42.9378C489.401 43.5472 487.422 44.8698 486.004 46.7049C484.585 48.54 483.803 50.7876 483.777 53.107H483.605C481 53.107 478.502 54.1416 476.661 55.9832C474.819 57.8249 473.784 60.3227 473.784 62.9271C473.784 65.5316 474.819 68.0294 476.661 69.871C478.502 71.7127 481 72.7473 483.605 72.7473H519.778C521.26 72.683 522.661 72.0485 523.687 70.9763C524.712 69.9041 525.284 68.4771 525.283 66.9933Z" fill="#F5F5F5"/>
<path id="Vector_13" d="M826.159 55.7346C826.159 54.2086 825.553 52.745 824.474 51.6659C823.395 50.5868 821.931 49.9806 820.405 49.9806C819.846 49.9744 819.289 50.0586 818.756 50.23C818.834 49.6386 818.872 49.0427 818.871 48.4462C818.871 45.2161 817.588 42.1182 815.304 39.8342C813.02 37.5501 809.922 36.2669 806.692 36.2669C805.933 36.2625 805.175 36.3267 804.428 36.4587C803.231 34.477 801.42 32.9396 799.27 32.0798C797.121 31.2199 794.749 31.0844 792.515 31.6938C790.282 32.3032 788.308 33.6243 786.892 35.4567C785.477 37.2892 784.698 39.5331 784.673 41.8483H784.462C781.93 41.9602 779.539 43.0447 777.787 44.8759C776.035 46.7071 775.057 49.1437 775.057 51.678C775.057 54.2124 776.035 56.649 777.787 58.4802C779.539 60.3114 781.93 61.3959 784.462 61.5078H820.539C822.045 61.4727 823.478 60.8483 824.528 59.7689C825.579 58.6894 826.165 57.241 826.159 55.7346Z" fill="#F5F5F5"/>
<path id="Vector_14" d="M201.237 90.5463C201.237 89.0203 200.63 87.5567 199.551 86.4776C198.472 85.3985 197.009 84.7923 195.483 84.7923C194.923 84.7861 194.366 84.8703 193.833 85.0417C193.917 84.4506 193.962 83.8548 193.967 83.2579C193.967 80.0227 192.682 76.92 190.394 74.6323C188.107 72.3446 185.004 71.0594 181.769 71.0594C181.01 71.0613 180.252 71.132 179.506 71.2704C178.308 69.2887 176.498 67.7514 174.348 66.8915C172.198 66.0316 169.827 65.8961 167.593 66.5055C165.359 67.1149 163.385 68.436 161.97 70.2684C160.554 72.1009 159.775 74.3448 159.75 76.66H159.578C156.973 76.66 154.475 77.6946 152.634 79.5363C150.792 81.3779 149.757 83.8757 149.757 86.4802C149.757 89.0846 150.792 91.5824 152.634 93.4241C154.475 95.2657 156.973 96.3003 159.578 96.3003H195.636C197.135 96.2603 198.56 95.6365 199.606 94.5617C200.652 93.4869 201.237 92.0462 201.237 90.5463Z" fill="#F5F5F5"/>
<path id="Vector_15" d="M730.278 254.785C730.58 253.611 730.76 252.409 730.816 251.198C731.257 243.718 738.488 244.907 744.453 243.89C749.19 243.104 736.646 231.136 746.198 227.261C748.064 226.764 749.699 225.631 750.82 224.058C751.3 222.882 751.354 221.575 750.973 220.363C750.591 219.151 749.797 218.111 748.73 217.422C746.546 216.113 744.023 215.479 741.48 215.6C739.926 213.682 741.192 210.862 742.707 208.925C744.222 206.988 746.064 204.782 745.488 202.404C744.625 198.798 739.581 198.568 735.898 199.374C734.556 197.187 734.594 194.464 733.98 191.989C733.366 189.515 731.353 186.926 728.821 187.233C726.289 187.54 724.985 190.225 722.606 190.781C719.883 191.414 717.524 189.016 715.395 187.214C713.266 185.411 709.526 184.279 708.049 186.657C707.167 188.077 707.684 190.071 706.783 191.471C705.191 193.907 701.432 192.392 699.111 190.666C696.79 188.94 693.05 187.386 691.439 189.764C691.031 190.559 690.728 191.404 690.538 192.277C689.425 195.461 685.973 197.053 683.287 199.105C680.602 201.157 678.473 205.224 680.756 207.717C681.868 208.944 683.844 209.443 684.4 211.016C685.09 212.934 683.096 214.737 681.504 216.079C678.876 218.323 678.397 225.056 681.887 226.878C683.345 227.664 685.493 227.894 685.858 229.505C686.222 231.117 684.707 232.076 683.729 233.188C683.117 233.981 682.683 234.898 682.457 235.874C682.232 236.85 682.22 237.864 682.422 238.845C682.624 239.827 683.035 240.753 683.628 241.561C684.221 242.369 684.982 243.039 685.858 243.526C686.702 243.929 687.776 244.255 688.044 245.137C688.17 245.783 688.097 246.452 687.833 247.055C687.474 248.3 687.364 249.603 687.507 250.891C687.498 251.329 687.656 251.754 687.948 252.08C688.279 252.294 688.667 252.401 689.061 252.387C694.105 252.617 696.541 250.834 699.61 255.207C699.879 255.648 700.238 256.027 700.665 256.319C701.094 256.536 701.565 256.66 702.046 256.683C705.517 256.952 707.8 254.765 710.945 254.401C715.337 253.826 716.277 256.108 720.151 257.911C726.174 260.711 729.128 258.947 730.278 254.785Z" fill="#EBEBEB"/>
<path id="Vector_16" d="M672.221 248.513C672.522 247.339 672.702 246.137 672.758 244.926C673.199 237.446 680.334 238.635 686.395 237.619C691.132 236.832 678.588 224.864 688.14 220.989C690 220.479 691.631 219.349 692.762 217.786C693.243 216.61 693.297 215.303 692.915 214.091C692.533 212.879 691.74 211.839 690.672 211.15C688.497 209.81 685.975 209.142 683.422 209.232C681.868 207.314 683.134 204.495 684.63 202.558C686.126 200.62 687.987 198.415 687.43 196.036C686.567 192.43 681.523 192.296 677.84 193.006C676.498 190.819 676.536 188.096 675.922 185.622C675.309 183.147 673.295 180.558 670.763 180.865C668.231 181.172 666.927 183.857 664.549 184.413C661.825 185.046 659.466 182.649 657.337 180.846C655.208 179.043 651.468 177.892 649.991 180.29C649.109 181.709 649.627 183.704 648.725 185.104C647.133 187.54 643.374 186.024 641.053 184.298C638.732 182.572 634.992 180.999 633.381 183.397C632.973 184.192 632.67 185.036 632.48 185.909C631.367 189.093 627.915 190.685 625.23 192.737C622.544 194.79 620.415 198.837 622.698 201.349C623.81 202.577 625.786 203.075 626.342 204.648C627.033 206.566 625.038 208.369 623.446 209.712C620.799 211.956 620.32 218.669 623.81 220.51C625.287 221.296 627.435 221.527 627.8 223.138C628.164 224.749 626.649 225.708 625.671 226.82C625.059 227.614 624.625 228.53 624.399 229.506C624.174 230.483 624.162 231.496 624.364 232.478C624.566 233.459 624.978 234.385 625.571 235.193C626.164 236.001 626.924 236.671 627.8 237.158C628.644 237.561 629.718 237.887 629.967 238.769C630.099 239.413 630.032 240.082 629.775 240.687C629.429 241.902 629.318 243.171 629.449 244.427C629.44 244.865 629.598 245.291 629.89 245.617C630.221 245.831 630.609 245.938 631.003 245.923C636.047 246.154 638.483 244.37 641.552 248.743C641.816 249.188 642.176 249.568 642.607 249.855C643.034 250.077 643.507 250.195 643.988 250.201C647.459 250.488 649.742 248.283 652.887 247.937C657.279 247.362 658.219 249.625 662.094 251.447C668.116 254.497 671.07 252.675 672.221 248.513Z" fill="#EBEBEB"/>
<path id="Vector_17" d="M666.62 211.553C666.92 210.372 667.1 209.164 667.157 207.947C667.598 200.467 674.829 201.656 680.813 200.639C685.551 199.853 672.988 187.885 682.559 184.01C684.417 183.507 686.044 182.375 687.162 180.807C687.644 179.633 687.701 178.327 687.322 177.116C686.944 175.904 686.155 174.863 685.09 174.171C682.909 172.83 680.38 172.163 677.821 172.253C676.268 170.335 677.533 167.516 679.049 165.578C680.564 163.641 682.405 161.436 681.83 159.057C680.967 155.451 675.922 155.317 672.24 156.027C670.897 153.84 670.916 151.117 670.322 148.643C669.727 146.168 667.694 143.579 665.162 143.886C662.631 144.193 661.326 146.878 658.967 147.434C656.244 148.086 653.885 145.67 651.736 143.867C649.588 142.064 645.867 140.932 644.39 143.31C643.508 144.73 644.045 146.725 643.125 148.125C641.533 150.561 637.773 149.045 635.453 147.319C633.132 145.593 629.392 144.039 627.781 146.437C627.37 147.224 627.067 148.062 626.879 148.93C625.767 152.114 622.314 153.706 619.629 155.758C616.944 157.811 614.815 161.877 617.097 164.37C618.21 165.598 620.185 166.096 620.742 167.669C621.451 169.587 619.437 171.39 617.845 172.733C615.218 174.977 614.738 181.709 618.229 183.55C619.687 184.317 621.835 184.547 622.199 186.159C622.564 187.77 621.048 188.729 620.07 189.86C619.458 190.652 619.025 191.567 618.799 192.542C618.574 193.517 618.562 194.529 618.764 195.509C618.966 196.489 619.378 197.414 619.971 198.22C620.564 199.026 621.324 199.694 622.199 200.179C623.043 200.582 624.117 200.908 624.386 201.79C624.507 202.436 624.433 203.104 624.175 203.708C623.845 204.926 623.735 206.192 623.849 207.448C623.85 207.882 624.014 208.3 624.309 208.618C624.63 208.837 625.014 208.945 625.402 208.925C630.447 209.155 632.882 207.372 635.951 211.745C636.225 212.187 636.584 212.572 637.006 212.876C637.444 213.087 637.921 213.205 638.406 213.222C641.859 213.509 644.16 211.304 647.287 210.939C651.698 210.383 652.619 212.646 656.493 214.468C662.516 217.46 665.546 215.696 666.62 211.553Z" fill="#EBEBEB"/>
<path id="Vector_18" d="M628.375 229.966C628.678 228.786 628.858 227.577 628.912 226.36C629.353 218.899 636.584 220.069 642.568 219.052C647.306 218.266 634.743 206.298 644.314 202.442C646.17 201.924 647.795 200.787 648.917 199.22C649.4 198.047 649.455 196.742 649.073 195.532C648.691 194.323 647.895 193.286 646.826 192.603C644.65 191.276 642.122 190.641 639.576 190.781C638.023 188.863 639.289 186.024 640.804 184.087C642.319 182.15 644.16 179.963 643.585 177.566C642.722 173.96 637.677 173.845 633.995 174.536C632.652 172.368 632.671 169.645 632.077 167.17C631.482 164.696 629.449 162.088 626.917 162.395C624.386 162.701 623.081 165.406 620.722 165.943C617.999 166.595 615.64 164.178 613.491 162.375C611.343 160.572 607.622 159.441 606.146 161.819C605.263 163.238 605.8 165.233 604.88 166.633C603.288 169.069 599.528 167.554 597.208 165.828C594.887 164.102 591.147 162.548 589.536 164.946C589.125 165.733 588.822 166.571 588.634 167.439C587.522 170.623 584.069 172.215 581.384 174.267C578.699 176.319 576.57 180.385 578.852 182.879C579.965 184.106 581.94 184.605 582.497 186.178C583.206 188.096 581.192 189.899 579.6 191.241C576.973 193.505 576.493 200.218 579.984 202.059C581.442 202.826 583.59 203.056 583.954 204.686C584.319 206.317 582.803 207.257 581.825 208.369C581.213 209.161 580.78 210.076 580.555 211.05C580.329 212.025 580.317 213.038 580.519 214.018C580.721 214.998 581.133 215.922 581.726 216.728C582.319 217.535 583.079 218.203 583.954 218.688C584.798 219.091 585.872 219.417 586.141 220.299C586.262 220.945 586.189 221.613 585.93 222.217C585.6 223.435 585.49 224.701 585.604 225.957C585.598 226.389 585.755 226.807 586.045 227.127C586.375 227.341 586.764 227.448 587.157 227.434C592.202 227.664 594.638 225.88 597.706 230.273C597.98 230.711 598.338 231.089 598.761 231.385C599.198 231.598 599.675 231.716 600.161 231.73C603.614 232.018 605.915 229.812 609.042 229.448C613.453 228.892 614.374 231.155 618.248 232.977C624.271 235.873 627.186 234.109 628.375 229.966Z" fill="#EBEBEB"/>
<path id="Vector_19" d="M589.727 221.45C590.029 220.276 590.209 219.074 590.265 217.863C590.706 210.383 597.841 211.572 603.901 210.556C608.639 209.769 596.095 197.782 605.647 193.927C607.513 193.417 609.145 192.278 610.269 190.704C610.748 189.531 610.801 188.227 610.419 187.018C610.038 185.809 609.245 184.773 608.179 184.087C605.994 182.78 603.472 182.146 600.929 182.265C599.375 180.347 600.641 177.528 602.137 175.59C603.633 173.653 605.493 171.448 604.937 169.069C604.055 165.463 599.03 165.233 595.347 166.039C594.005 163.852 594.043 161.129 593.429 158.655C592.815 156.18 590.802 153.591 588.27 153.898C585.738 154.205 584.434 156.89 582.055 157.446C579.332 158.079 576.973 155.682 574.844 153.86C572.715 152.037 568.956 150.925 567.498 153.322C566.616 154.742 567.133 156.717 566.213 158.137C564.64 160.553 560.862 159.057 558.541 157.331C556.22 155.605 552.48 154.032 550.869 156.43C550.458 157.223 550.155 158.068 549.967 158.942C548.855 162.126 545.402 163.718 542.717 165.751C540.032 167.784 537.903 171.87 540.186 174.382C541.298 175.61 543.274 176.108 543.83 177.681C544.52 179.599 542.525 181.402 540.934 182.745C538.287 184.989 537.807 191.702 541.298 193.543C542.775 194.31 544.923 194.559 545.287 196.171C545.652 197.782 544.137 198.741 543.158 199.853C542.546 200.647 542.113 201.563 541.887 202.539C541.662 203.515 541.649 204.529 541.852 205.511C542.054 206.492 542.465 207.418 543.058 208.226C543.651 209.034 544.412 209.704 545.287 210.191C546.131 210.594 547.205 210.92 547.455 211.802C547.587 212.446 547.52 213.115 547.263 213.72C546.919 214.935 546.802 216.203 546.918 217.46C546.89 217.67 546.912 217.884 546.983 218.083C547.053 218.283 547.17 218.463 547.323 218.609C547.477 218.754 547.662 218.862 547.865 218.922C548.068 218.983 548.282 218.995 548.49 218.956C553.535 219.187 555.951 217.384 559.039 221.776C559.298 222.225 559.659 222.607 560.094 222.888C560.521 223.11 560.994 223.228 561.475 223.234C564.947 223.521 567.229 221.316 570.375 220.951C574.767 220.395 575.707 222.658 579.581 224.48C585.623 227.376 588.577 225.612 589.727 221.45Z" fill="#EBEBEB"/>
<path id="Vector_20" d="M589.21 262.802C589.449 261.872 589.597 260.922 589.651 259.963C589.996 254.094 595.616 255.015 600.392 254.209C604.112 253.576 594.235 244.159 601.753 241.109C603.221 240.706 604.507 239.812 605.398 238.578C605.776 237.652 605.817 236.624 605.516 235.671C605.215 234.718 604.589 233.9 603.748 233.361C602.017 232.318 600.013 231.817 597.994 231.922C596.767 230.445 597.764 228.086 598.953 226.667C600.142 225.247 601.6 223.406 601.159 221.527C600.468 218.688 596.498 218.592 593.64 219.148C592.851 217.314 592.328 215.376 592.087 213.394C591.569 211.476 590.034 209.405 588.02 209.558C586.007 209.712 584.99 211.898 583.149 212.339C581.001 212.857 579.14 210.958 577.395 209.52C575.649 208.081 572.772 207.218 571.641 209.098C570.95 210.21 571.353 211.783 570.643 212.934C569.377 214.852 566.424 213.663 564.582 212.301C562.741 210.939 559.807 209.712 558.522 211.61C558.194 212.214 557.949 212.859 557.793 213.528C556.93 216.041 554.206 217.364 552.039 218.918C549.871 220.472 548.203 223.732 550.121 225.689C551.003 226.667 552.557 227.05 552.998 228.297C553.439 229.544 551.962 231.212 550.715 232.287C548.644 234.051 548.26 239.345 551.003 240.783C552.154 241.397 553.861 241.589 554.129 242.855C554.398 244.121 553.228 244.888 552.461 245.751C551.977 246.374 551.634 247.094 551.455 247.862C551.277 248.631 551.266 249.428 551.424 250.201C551.583 250.973 551.907 251.703 552.374 252.338C552.841 252.974 553.44 253.501 554.129 253.883C554.801 254.209 555.606 254.459 555.856 255.149C555.957 255.671 555.904 256.211 555.702 256.703C555.431 257.656 555.34 258.651 555.434 259.637C555.43 259.807 555.461 259.976 555.524 260.134C555.586 260.292 555.679 260.436 555.798 260.558C556.049 260.738 556.353 260.826 556.661 260.807C560.631 260.98 562.549 259.58 564.966 263.032C565.179 263.379 565.459 263.679 565.791 263.914C566.129 264.089 566.504 264.181 566.884 264.183C569.627 264.413 571.411 262.706 573.904 262.399C577.356 261.958 578.085 263.742 581.135 265.161C585.987 267.463 588.308 266.005 589.21 262.802Z" fill="#EBEBEB"/>
<path id="Vector_21" d="M567.555 248.513C567.857 247.339 568.037 246.137 568.092 244.926C568.553 237.446 575.668 238.635 581.749 237.619C586.486 236.832 573.923 224.864 583.494 220.989C585.349 220.479 586.974 219.349 588.097 217.786C588.579 216.612 588.636 215.307 588.258 214.095C587.88 212.883 587.09 211.842 586.026 211.15C583.844 209.809 581.316 209.142 578.756 209.232C577.203 207.314 578.469 204.495 579.984 202.558C581.499 200.62 583.34 198.415 582.765 196.036C581.902 192.43 576.858 192.296 573.175 193.006C571.832 190.819 571.852 188.096 571.257 185.622C570.663 183.147 568.629 180.558 566.098 180.865C563.566 181.172 562.262 183.857 559.903 184.413C557.179 185.046 554.82 182.649 552.672 180.846C550.523 179.043 546.803 177.892 545.326 180.29C544.443 181.709 544.98 183.704 544.06 185.104C542.468 187.54 538.709 186.024 536.388 184.298C534.067 182.572 530.327 180.999 528.716 183.397C528.308 184.192 528.005 185.036 527.814 185.909C526.702 189.093 523.269 190.685 520.584 192.737C517.898 194.79 515.75 198.837 518.033 201.349C519.145 202.577 521.121 203.075 521.677 204.648C522.386 206.566 520.373 208.369 518.781 209.712C516.153 211.956 515.673 218.669 519.164 220.51C520.622 221.296 522.77 221.527 523.134 223.138C523.499 224.749 521.984 225.708 521.025 226.82C520.409 227.611 519.971 228.526 519.742 229.502C519.514 230.479 519.499 231.493 519.699 232.475C519.9 233.457 520.311 234.385 520.904 235.193C521.497 236.001 522.258 236.672 523.134 237.158C523.978 237.561 525.052 237.887 525.321 238.769C525.447 239.415 525.373 240.084 525.11 240.687C524.783 241.905 524.672 243.171 524.784 244.427C524.78 244.868 524.945 245.293 525.244 245.617C525.566 245.835 525.949 245.943 526.338 245.923C531.382 246.154 533.818 244.37 536.887 248.743C537.156 249.184 537.515 249.563 537.941 249.855C538.376 250.075 538.855 250.193 539.342 250.201C542.794 250.488 545.096 248.283 548.241 247.937C552.633 247.362 553.554 249.625 557.428 251.447C563.47 254.497 566.405 252.675 567.555 248.513Z" fill="#EBEBEB"/>
<path id="Vector_22" d="M628.375 184.471C628.677 183.297 628.857 182.095 628.912 180.884C629.353 173.404 636.584 174.593 642.568 173.577C647.306 172.79 634.743 160.822 644.314 156.948C646.172 156.444 647.799 155.312 648.917 153.744C649.401 152.569 649.457 151.26 649.075 150.047C648.693 148.834 647.897 147.794 646.826 147.108C644.642 145.799 642.12 145.165 639.576 145.286C638.023 143.368 639.289 140.549 640.804 138.611C642.319 136.674 644.16 134.469 643.585 132.09C642.722 128.484 637.677 128.254 633.995 129.06C632.652 126.873 632.671 124.15 632.077 121.675C631.482 119.201 629.449 116.612 626.917 116.919C624.386 117.226 623.081 119.911 620.722 120.467C617.999 121.119 615.64 118.703 613.491 116.9C611.343 115.097 607.622 113.965 606.146 116.343C605.263 117.763 605.8 119.757 604.88 121.158C603.288 123.593 599.528 122.078 597.208 120.352C594.887 118.626 591.147 117.072 589.536 119.451C589.128 120.246 588.825 121.09 588.634 121.963C587.522 125.147 584.069 126.739 581.384 128.791C578.699 130.844 576.57 134.91 578.852 137.403C579.965 138.631 581.94 139.129 582.497 140.702C583.206 142.62 581.192 144.423 579.6 145.766C576.973 148.01 576.493 154.742 579.984 156.564C581.442 157.35 583.59 157.58 583.954 159.192C584.319 160.803 582.803 161.762 581.825 162.874C581.213 163.668 580.78 164.584 580.554 165.56C580.328 166.536 580.316 167.55 580.518 168.531C580.721 169.513 581.132 170.439 581.725 171.247C582.318 172.055 583.078 172.725 583.954 173.212C584.798 173.615 585.872 173.941 586.141 174.823C586.262 175.469 586.189 176.137 585.93 176.741C585.589 177.99 585.478 179.289 585.604 180.577C585.598 181.009 585.755 181.427 586.045 181.747C586.375 181.961 586.764 182.068 587.157 182.054C592.202 182.284 594.638 180.501 597.706 184.874C597.98 185.316 598.339 185.701 598.761 186.005C599.198 186.218 599.675 186.336 600.161 186.35C603.614 186.638 605.915 184.432 609.042 184.068C613.453 183.493 614.374 185.775 618.248 187.597C624.271 190.397 627.186 188.633 628.375 184.471Z" fill="#EBEBEB"/>
<path id="Vector_23" d="M678.032 187.022C678.335 185.842 678.515 184.633 678.569 183.416C679.01 175.955 686.145 177.125 692.225 176.127C696.963 175.322 684.4 163.354 693.971 159.498C695.828 158.98 697.452 157.843 698.574 156.276C699.057 155.103 699.112 153.798 698.73 152.588C698.348 151.379 697.552 150.342 696.483 149.659C694.317 148.299 691.789 147.63 689.233 147.741C687.68 145.823 688.946 142.984 690.461 141.047C691.976 139.11 693.817 136.924 693.242 134.526C692.379 130.92 687.334 130.805 683.652 131.496C682.309 129.328 682.328 126.605 681.734 124.131C681.139 121.656 679.106 119.048 676.574 119.374C674.043 119.7 672.738 122.366 670.379 122.903C667.656 123.555 665.297 121.138 663.148 119.336C661 117.533 657.279 116.401 655.803 118.779C654.92 120.199 655.457 122.193 654.537 123.593C652.945 126.029 649.185 124.514 646.865 122.788C644.544 121.062 640.804 119.508 639.193 121.906C638.782 122.693 638.479 123.531 638.291 124.399C637.179 127.583 633.726 129.175 631.041 131.227C628.356 133.279 626.227 137.346 628.509 139.839C629.622 141.066 631.597 141.565 632.154 143.138C632.863 145.056 630.849 146.859 629.257 148.221C626.63 150.465 626.15 157.178 629.641 159.019C631.099 159.786 633.247 160.016 633.611 161.647C633.976 163.277 632.46 164.217 631.482 165.329C630.87 166.121 630.437 167.036 630.211 168.011C629.986 168.985 629.974 169.998 630.176 170.978C630.378 171.958 630.79 172.882 631.383 173.689C631.976 174.495 632.736 175.163 633.611 175.648C634.455 176.051 635.529 176.396 635.798 177.259C635.92 177.905 635.847 178.573 635.587 179.177C635.259 180.395 635.148 181.661 635.261 182.917C635.251 183.35 635.409 183.769 635.702 184.087C636.032 184.301 636.421 184.408 636.814 184.394C641.859 184.624 644.295 182.84 647.363 187.233C647.637 187.671 647.995 188.049 648.418 188.345C648.852 188.567 649.331 188.685 649.818 188.69C653.271 188.978 655.572 186.772 658.699 186.408C663.11 185.852 664.031 188.115 667.905 189.937C673.928 192.929 676.881 191.203 678.032 187.022Z" fill="#EBEBEB"/>
<path id="Vector_24" d="M708.202 207.333C708.504 206.159 708.684 204.957 708.739 203.747C709.181 196.266 716.411 197.456 722.376 196.439C727.114 195.653 714.57 183.684 724.122 179.81C725.985 179.307 727.618 178.175 728.744 176.607C729.224 175.431 729.278 174.123 728.896 172.912C728.515 171.7 727.721 170.659 726.653 169.971C724.479 168.63 721.956 167.963 719.403 168.053C717.85 166.135 719.116 163.315 720.612 161.378C722.108 159.441 723.968 157.235 723.393 154.857C722.53 151.251 717.505 151.117 713.803 151.826C712.46 149.64 712.479 146.916 711.885 144.442C711.29 141.968 709.276 139.379 706.725 139.685C704.175 139.992 702.889 142.678 700.53 143.234C697.807 143.867 695.448 141.469 693.319 139.666C691.19 137.863 687.43 136.732 685.973 139.11C685.09 140.529 685.608 142.524 684.688 143.924C683.115 146.36 679.336 144.845 677.016 143.119C674.695 141.392 670.955 139.839 669.344 142.217C668.93 143.012 668.62 143.856 668.423 144.73C667.33 147.914 663.877 149.506 661.192 151.558C658.507 153.61 656.378 157.657 658.641 160.17C659.773 161.397 661.748 161.896 662.305 163.469C662.995 165.387 661 167.19 659.408 168.532C656.762 170.776 656.282 177.508 659.773 179.331C661.25 180.117 663.398 180.347 663.762 181.958C664.127 183.569 662.611 184.528 661.633 185.641C661.015 186.432 660.576 187.348 660.347 188.325C660.117 189.303 660.104 190.319 660.306 191.302C660.509 192.286 660.923 193.213 661.52 194.021C662.116 194.828 662.882 195.497 663.762 195.979C664.587 196.382 665.68 196.708 665.93 197.59C666.062 198.234 665.995 198.903 665.738 199.508C665.383 200.753 665.265 202.055 665.393 203.344C665.389 203.785 665.553 204.21 665.853 204.533C666.183 204.747 666.572 204.854 666.965 204.84C672.01 205.07 674.426 203.286 677.514 207.659C677.773 208.109 678.134 208.49 678.569 208.772C678.998 208.991 679.469 209.115 679.95 209.136C683.422 209.405 685.704 207.218 688.85 206.854C693.242 206.278 694.182 208.561 698.037 210.364C704.098 213.26 707.052 211.495 708.202 207.333Z" fill="#EBEBEB"/>
<path id="Vector_25" d="M699.053 233.035C699.053 233.035 686.433 250.853 682.079 256.511C677.725 262.169 655.994 297.403 653.021 320.706C652.715 323.2 652.408 325.329 652.101 327.208C661.441 388.949 659.984 501.919 659.658 521.252H630.025C629.737 499.445 627.224 300.088 626.304 294.008C625.306 287.563 612.878 263.032 593.698 252.963C574.518 242.893 558.138 209.539 558.138 209.539H564.237C564.237 209.539 575.553 229.985 591.645 241.282C593.959 242.881 596.382 244.316 598.895 245.578C598.855 233.28 601.018 221.074 605.282 209.539L608.581 212.589C604.132 230.79 604.745 242.452 606.069 249.146C612.151 251.995 617.765 255.752 622.717 260.289C639.404 238.578 648.783 188.94 648.783 188.94L653.06 191.261C651.847 201.517 650.003 211.689 647.536 221.718C644.41 234.569 635.203 258.755 630.926 269.668C636.052 277.032 640.288 284.977 643.546 293.336C644 292.631 644.541 291.987 645.158 291.418C656.033 281.598 676.459 235.144 676.459 235.144C681.408 224.346 673.851 195.998 673.851 195.998H679.605L682.156 220.798L696.522 205.128L699.13 207.314L683.901 226.878L676.076 251.678L696.522 229.045L699.053 233.035Z" fill="#E6E6E6"/>
<path id="Vector_26" d="M160.46 321.301C160.218 320.399 160.076 319.472 160.038 318.539C159.693 312.785 154.284 313.725 149.566 312.938C145.921 312.344 155.55 303.157 148.223 300.184C146.801 299.792 145.556 298.926 144.694 297.729C144.322 296.826 144.278 295.822 144.568 294.89C144.859 293.958 145.467 293.158 146.286 292.627C147.964 291.63 149.899 291.15 151.848 291.246C153.056 289.788 152.078 287.602 150.927 286.106C149.777 284.61 148.338 282.941 148.779 281.1C149.451 278.338 153.306 278.242 156.106 278.779C156.873 276.974 157.376 275.069 157.602 273.121C158.12 271.203 159.52 269.285 161.572 269.477C163.625 269.668 164.526 271.759 166.329 272.2C168.42 272.68 170.165 270.838 171.872 269.457C173.579 268.076 176.379 267.194 177.511 269.016C178.182 270.109 177.779 271.644 178.489 272.718C179.697 274.636 182.594 273.428 184.377 272.104C186.161 270.781 189.038 269.572 190.285 271.414C190.606 272.019 190.845 272.664 190.994 273.332C191.838 275.787 194.485 276.995 196.537 278.568C198.59 280.141 200.239 283.267 198.455 285.185C197.592 286.125 196.077 286.508 195.655 287.717C195.118 289.213 196.653 290.575 197.88 291.553C199.798 293.279 200.258 298.419 197.592 299.838C196.461 300.433 194.811 300.606 194.543 301.852C194.274 303.099 195.425 303.77 196.173 304.672C196.643 305.281 196.976 305.985 197.149 306.734C197.322 307.484 197.332 308.262 197.177 309.016C197.022 309.769 196.707 310.481 196.252 311.101C195.798 311.722 195.215 312.237 194.543 312.612C193.891 312.919 193.104 313.169 192.874 313.84C192.763 314.342 192.817 314.867 193.028 315.336C193.284 316.272 193.368 317.247 193.277 318.213C193.276 318.54 193.153 318.855 192.932 319.095C192.681 319.275 192.376 319.363 192.069 319.345C188.232 319.517 186.314 318.155 183.975 321.512C183.774 321.856 183.499 322.151 183.169 322.375C182.839 322.534 182.48 322.625 182.114 322.643C179.448 322.854 177.722 321.186 175.286 320.879C171.91 320.457 171.201 322.202 168.228 323.583C163.586 325.847 161.323 324.485 160.46 321.301Z" fill="#EBEBEB"/>
<path id="Vector_27" d="M204.996 316.487C204.763 315.583 204.622 314.657 204.574 313.725C204.248 307.971 198.82 308.911 194.121 308.124C190.477 307.53 200.105 298.342 192.778 295.37C191.345 294.958 190.094 294.072 189.23 292.857C188.861 291.955 188.82 290.953 189.115 290.024C189.409 289.095 190.02 288.299 190.841 287.774C192.513 286.761 194.451 286.273 196.403 286.374C197.592 284.916 196.614 282.73 195.463 281.234C194.313 279.738 192.893 278.069 193.334 276.228C193.987 273.466 197.861 273.37 200.642 273.907C201.433 272.076 201.944 270.136 202.157 268.153C202.656 266.235 204.075 264.317 206.108 264.509C208.141 264.701 209.081 266.811 210.884 267.232C212.975 267.712 214.72 265.871 216.408 264.49C218.096 263.109 220.915 262.227 222.047 264.049C222.737 265.142 222.315 266.676 223.025 267.75C224.253 269.668 227.13 268.46 228.933 267.137C230.735 265.813 233.574 264.605 234.84 266.446C235.154 267.052 235.387 267.697 235.53 268.364C236.374 270.819 239.021 272.028 241.093 273.6C243.164 275.173 244.794 278.299 243.011 280.217C242.148 281.157 240.632 281.541 240.191 282.749C239.673 284.245 241.208 285.607 242.416 286.585C244.449 288.311 244.814 293.452 242.128 294.871C241.016 295.465 239.366 295.638 239.079 296.885C238.791 298.131 239.961 298.803 240.709 299.704C241.182 300.312 241.518 301.016 241.693 301.766C241.868 302.516 241.878 303.295 241.723 304.05C241.568 304.805 241.252 305.517 240.795 306.137C240.339 306.758 239.753 307.272 239.079 307.645C238.446 307.952 237.659 308.201 237.41 308.872C237.309 309.375 237.362 309.897 237.564 310.368C237.826 311.303 237.917 312.278 237.832 313.245C237.822 313.58 237.693 313.899 237.468 314.147C237.219 314.314 236.923 314.395 236.624 314.377C232.788 314.55 230.87 313.188 228.53 316.544C228.357 316.901 228.083 317.198 227.741 317.399C227.4 317.601 227.007 317.697 226.612 317.676C223.965 317.887 222.22 316.218 219.784 315.911C216.427 315.489 215.698 317.235 212.745 318.616C208.141 321.032 205.878 319.709 204.996 316.487Z" fill="#EBEBEB"/>
<path id="Vector_28" d="M209.292 288.12C209.052 287.217 208.91 286.291 208.87 285.358C208.525 279.604 203.116 280.543 198.398 279.757C194.773 279.143 204.401 269.975 197.074 267.002C195.642 266.611 194.389 265.737 193.526 264.528C193.159 263.628 193.118 262.628 193.408 261.701C193.699 260.773 194.303 259.975 195.118 259.445C196.802 258.446 198.744 257.966 200.7 258.064C201.889 256.607 200.91 254.42 199.76 252.924C198.609 251.428 197.19 249.76 197.631 247.918C198.283 245.156 202.157 245.06 204.938 245.597C205.729 243.766 206.24 241.827 206.454 239.843C206.952 237.925 208.372 236.007 210.405 236.199C212.438 236.391 213.358 238.482 215.161 238.923C216.964 239.364 218.997 237.561 220.704 236.161C222.411 234.761 225.212 233.917 226.343 235.739C227.014 236.832 226.612 238.367 227.321 239.441C228.53 241.359 231.426 240.15 233.229 238.827C235.032 237.503 237.87 236.295 239.136 238.136C239.449 238.743 239.681 239.388 239.827 240.054C240.671 242.509 243.317 243.718 245.389 245.291C247.46 246.863 249.071 249.99 247.307 251.908C246.463 252.847 244.948 253.231 244.507 254.439C244.066 255.648 245.523 257.297 246.732 258.275C248.765 259.982 249.129 265.142 246.444 266.561C245.331 267.156 243.682 267.328 243.394 268.479C243.106 269.63 244.276 270.397 245.024 271.299C245.497 271.905 245.833 272.607 246.008 273.356C246.183 274.105 246.193 274.882 246.038 275.636C245.883 276.389 245.566 277.099 245.11 277.718C244.653 278.337 244.068 278.849 243.394 279.22C242.761 279.546 241.956 279.795 241.726 280.467C241.624 280.969 241.677 281.491 241.879 281.963C242.144 282.891 242.228 283.861 242.128 284.821C242.135 284.986 242.107 285.152 242.048 285.307C241.989 285.462 241.899 285.603 241.783 285.722C241.54 285.902 241.241 285.99 240.939 285.971C237.103 286.144 235.185 284.763 232.845 288.139C232.639 288.479 232.365 288.772 232.04 289.002C231.704 289.161 231.337 289.246 230.966 289.251C228.319 289.481 226.573 287.813 224.137 287.506C220.762 287.084 220.052 288.81 217.079 290.21C212.438 292.665 210.174 291.303 209.292 288.12Z" fill="#EBEBEB"/>
<path id="Vector_29" d="M238.638 302.255C238.397 301.353 238.255 300.426 238.216 299.493C237.87 293.739 232.462 294.66 227.743 293.893C224.118 293.279 233.747 284.092 226.42 281.138C224.987 280.747 223.734 279.873 222.872 278.664C222.524 277.782 222.487 276.808 222.766 275.902C223.044 274.996 223.623 274.211 224.406 273.677C226.089 272.672 228.03 272.185 229.987 272.277C231.177 270.838 230.198 268.633 229.048 267.156C227.897 265.679 226.477 263.991 226.919 262.15C227.571 259.388 231.445 259.292 234.226 259.829C235.008 258.028 235.518 256.121 235.741 254.171C236.24 252.253 237.659 250.335 239.693 250.508C241.726 250.68 242.646 252.809 244.449 253.231C246.252 253.653 248.285 251.888 249.992 250.488C251.699 249.088 254.499 248.244 255.631 250.066C256.302 251.16 255.9 252.694 256.609 253.768C257.818 255.686 260.714 254.478 262.517 253.154C264.32 251.831 267.158 250.623 268.424 252.464C268.737 253.071 268.969 253.715 269.115 254.382C269.959 256.818 272.605 258.045 274.677 259.618C276.748 261.191 278.359 264.317 276.595 266.216C275.732 267.175 274.236 267.559 273.795 268.767C273.258 270.263 274.811 271.606 276.019 272.603C278.053 274.329 278.417 279.489 275.732 280.908C274.619 281.483 272.97 281.675 272.682 282.826C272.394 283.977 273.564 284.744 274.312 285.645C274.785 286.252 275.121 286.954 275.295 287.702C275.47 288.451 275.481 289.229 275.326 289.982C275.171 290.735 274.854 291.446 274.398 292.065C273.941 292.684 273.356 293.196 272.682 293.567C272.049 293.873 271.244 294.123 271.013 294.794C270.912 295.303 270.965 295.831 271.167 296.309C271.432 297.237 271.516 298.207 271.416 299.167C271.425 299.501 271.301 299.826 271.071 300.069C270.823 300.239 270.528 300.326 270.227 300.318C266.391 300.491 264.473 299.11 262.133 302.485C261.932 302.824 261.656 303.112 261.328 303.329C260.996 303.503 260.628 303.595 260.253 303.598C257.607 303.828 255.861 302.159 253.425 301.852C250.05 301.43 249.34 303.157 246.367 304.557C241.783 306.782 239.52 305.439 238.638 302.255Z" fill="#EBEBEB"/>
<path id="Vector_30" d="M268.29 295.734C268.069 294.827 267.928 293.903 267.868 292.972C267.542 287.218 262.114 288.139 257.415 287.372C253.771 286.758 263.399 277.571 256.072 274.598C254.644 274.208 253.392 273.342 252.524 272.143C252.155 271.241 252.114 270.238 252.409 269.309C252.703 268.381 253.314 267.585 254.135 267.06C255.807 266.047 257.745 265.559 259.697 265.66C260.886 264.202 259.927 262.016 258.757 260.539C257.587 259.062 256.187 257.355 256.628 255.533C257.281 252.771 261.155 252.675 263.936 253.212C264.724 251.38 265.235 249.441 265.451 247.458C265.95 245.54 267.369 243.622 269.421 243.795C271.474 243.967 272.375 246.096 274.178 246.518C276.269 247.017 278.014 245.156 279.721 243.775C281.428 242.394 284.228 241.512 285.341 243.353C286.031 244.447 285.629 245.962 286.319 247.036C287.547 248.954 290.424 247.746 292.226 246.422C294.029 245.099 296.868 243.91 298.134 245.751C298.455 246.354 298.687 247 298.824 247.669C299.687 250.105 302.334 251.332 304.387 252.905C306.439 254.478 308.088 257.585 306.305 259.503C305.441 260.443 303.926 260.826 303.504 262.035C302.967 263.55 304.502 264.893 305.71 265.871C307.743 267.597 308.108 272.756 305.441 274.156C304.31 274.751 302.66 274.943 302.392 276.074C302.123 277.206 303.255 277.992 304.003 278.913C304.476 279.52 304.811 280.222 304.986 280.97C305.161 281.719 305.171 282.497 305.016 283.25C304.861 284.003 304.545 284.714 304.088 285.333C303.632 285.952 303.046 286.464 302.373 286.834C301.74 287.141 300.953 287.391 300.704 288.062C300.602 288.565 300.656 289.086 300.857 289.558C301.118 290.493 301.209 291.468 301.126 292.435C301.127 292.772 300.996 293.095 300.762 293.336C300.517 293.513 300.218 293.594 299.918 293.567C296.082 293.739 294.164 292.377 291.824 295.734C291.623 296.078 291.347 296.373 291.018 296.597C290.684 296.765 290.317 296.856 289.944 296.866C287.297 297.077 285.552 295.427 283.135 295.12C279.759 294.679 279.05 296.424 276.077 297.825C271.435 300.26 269.172 298.918 268.29 295.734Z" fill="#EBEBEB"/>
<path id="Vector_31" d="M268.673 327.381C268.497 326.664 268.388 325.932 268.347 325.194C268.079 320.687 263.782 321.358 260.119 320.783C257.242 320.304 264.837 313.111 259.064 310.752C257.939 310.451 256.951 309.774 256.264 308.834C255.977 308.126 255.947 307.339 256.178 306.611C256.409 305.883 256.887 305.258 257.53 304.844C258.847 304.053 260.368 303.667 261.903 303.732C262.862 302.6 262.095 300.874 261.174 299.704C260.253 298.534 259.141 297.211 259.486 295.753C260.023 293.586 263.054 293.509 265.24 293.931C265.844 292.511 266.245 291.013 266.429 289.481C266.813 287.985 268.002 286.413 269.536 286.604C271.071 286.796 271.876 288.407 273.372 288.733C274.869 289.059 276.441 287.678 277.726 286.585C279.011 285.492 281.275 284.801 282.176 286.24C282.694 287.103 282.387 288.311 282.943 289.155C283.902 290.632 286.166 289.711 287.585 288.676C289.004 287.64 291.248 286.758 292.226 288.139C292.48 288.609 292.668 289.113 292.783 289.635C293.454 291.553 295.525 292.531 297.156 293.758C298.786 294.986 300.071 297.46 298.69 298.975C298.019 299.704 296.772 300.011 296.484 300.893C296.197 301.776 297.271 303.137 298.23 303.943C299.822 305.305 300.148 309.371 298.019 310.483C297.117 310.944 295.832 311.078 295.602 312.056C295.372 313.034 296.293 313.61 296.887 314.281C297.259 314.76 297.523 315.314 297.661 315.905C297.798 316.496 297.806 317.109 297.684 317.703C297.562 318.297 297.313 318.858 296.953 319.347C296.594 319.835 296.133 320.24 295.602 320.534C295.103 320.764 294.47 320.975 294.298 321.493C294.209 321.891 294.249 322.308 294.413 322.682C294.618 323.418 294.689 324.184 294.624 324.945C294.618 325.209 294.516 325.462 294.336 325.655C294.141 325.792 293.902 325.854 293.665 325.827C290.634 325.981 289.158 324.888 287.297 327.554C287.138 327.821 286.922 328.051 286.664 328.225C286.398 328.345 286.112 328.416 285.82 328.436C283.73 328.609 282.368 327.285 280.45 327.055C277.784 326.71 277.228 328.071 274.888 329.184C271.148 331.025 269.364 329.951 268.673 327.381Z" fill="#EBEBEB"/>
<path id="Vector_32" d="M285.302 316.487C285.061 315.584 284.919 314.658 284.881 313.725C284.535 307.971 279.127 308.911 274.408 308.124C270.783 307.53 280.412 298.342 273.085 295.37C271.657 294.979 270.405 294.113 269.537 292.915C269.166 292.015 269.122 291.014 269.413 290.085C269.704 289.157 270.311 288.359 271.128 287.832C272.807 286.818 274.751 286.331 276.71 286.432C277.899 284.974 276.921 282.788 275.77 281.291C274.619 279.795 273.2 278.127 273.622 276.285C274.293 273.524 278.148 273.428 280.949 273.965C281.739 272.134 282.25 270.194 282.464 268.211C282.963 266.293 284.382 264.375 286.415 264.566C288.448 264.758 289.369 266.868 291.172 267.29C293.262 267.77 295.008 265.928 296.715 264.547C298.422 263.166 301.222 262.284 302.354 264.106C303.025 265.199 302.622 266.734 303.332 267.808C304.54 269.726 307.436 268.518 309.22 267.194C311.004 265.871 313.881 264.662 315.147 266.504C315.453 267.113 315.685 267.757 315.837 268.422C316.681 270.877 319.328 272.085 321.399 273.658C323.471 275.231 325.082 278.357 323.317 280.275C322.454 281.215 320.939 281.598 320.517 282.807C319.98 284.303 321.534 285.664 322.742 286.643C324.775 288.369 325.139 293.509 322.454 294.928C321.323 295.523 319.673 295.696 319.405 296.942C319.136 298.189 320.287 298.86 321.035 299.762C321.508 300.37 321.843 301.073 322.018 301.824C322.194 302.574 322.204 303.353 322.049 304.108C321.894 304.862 321.577 305.574 321.121 306.195C320.664 306.815 320.079 307.33 319.405 307.702C318.752 308.009 317.966 308.259 317.736 308.93C317.634 309.433 317.688 309.954 317.889 310.426C318.145 311.362 318.23 312.337 318.139 313.303C318.145 313.637 318.021 313.96 317.793 314.204C317.543 314.367 317.248 314.447 316.95 314.434C313.114 314.607 311.195 313.245 308.856 316.602C308.649 316.942 308.375 317.236 308.05 317.465C307.712 317.621 307.348 317.712 306.976 317.733C304.31 317.944 302.584 316.276 300.148 315.969C296.772 315.547 296.062 317.292 293.09 318.673C288.448 321.032 286.185 319.709 285.302 316.487Z" fill="#EBEBEB"/>
<path id="Vector_33" d="M238.638 267.367C238.397 266.458 238.256 265.525 238.216 264.586C237.87 258.832 232.462 259.771 227.743 258.985C224.118 258.39 233.747 249.203 226.42 246.23C224.989 245.847 223.735 244.979 222.872 243.775C222.505 242.875 222.463 241.875 222.754 240.948C223.044 240.02 223.649 239.223 224.464 238.693C226.143 237.679 228.086 237.191 230.045 237.292C231.234 235.835 230.256 233.648 229.105 232.171C227.954 230.695 226.535 228.988 226.976 227.165C227.628 224.404 231.503 224.288 234.284 224.825C235.065 223.025 235.576 221.118 235.799 219.167C236.298 217.249 237.717 215.331 239.75 215.523C241.783 215.715 242.704 217.825 244.507 218.247C246.31 218.669 248.343 216.885 250.05 215.504C251.757 214.123 254.557 213.241 255.689 215.082C256.36 216.175 255.957 217.691 256.667 218.765C257.875 220.683 260.771 219.474 262.574 218.151C264.377 216.827 267.216 215.638 268.482 217.46C268.788 218.07 269.02 218.714 269.172 219.378C270.016 221.833 272.663 223.061 274.734 224.634C276.806 226.206 278.417 229.314 276.652 231.232C275.789 232.171 274.293 232.555 273.852 233.763C273.315 235.279 274.869 236.621 276.077 237.599C278.11 239.326 278.474 244.485 275.789 245.885C274.677 246.48 273.027 246.652 272.74 247.899C272.452 249.146 273.622 249.817 274.37 250.738C274.843 251.344 275.178 252.046 275.353 252.795C275.528 253.544 275.538 254.321 275.383 255.075C275.228 255.828 274.912 256.538 274.455 257.157C273.999 257.776 273.413 258.288 272.74 258.659C272.107 258.966 271.301 259.215 271.071 259.887C270.969 260.389 271.023 260.911 271.224 261.383C271.489 262.317 271.574 263.293 271.474 264.26C271.48 264.594 271.356 264.917 271.129 265.161C270.879 265.326 270.583 265.407 270.285 265.391C266.449 265.564 264.531 264.202 262.191 267.559C261.989 267.902 261.714 268.197 261.385 268.422C261.05 268.587 260.684 268.679 260.311 268.69C257.664 268.901 255.919 267.252 253.483 266.945C250.107 266.504 249.398 268.249 246.425 269.649C241.783 271.893 239.52 270.531 238.638 267.367Z" fill="#EBEBEB"/>
<path id="Vector_34" d="M200.527 269.304C200.303 268.399 200.168 267.474 200.124 266.542C199.779 260.788 194.37 261.728 189.652 260.941C186.008 260.328 195.636 251.141 188.309 248.187C186.882 247.796 185.634 246.921 184.78 245.713C184.409 244.813 184.366 243.812 184.657 242.883C184.947 241.955 185.554 241.157 186.372 240.63C188.047 239.625 189.984 239.144 191.934 239.249C193.143 237.791 192.164 235.605 190.994 234.109C189.824 232.613 188.424 230.944 188.865 229.103C189.537 226.341 193.392 226.245 196.192 226.782C196.968 224.947 197.472 223.008 197.688 221.028C198.206 219.11 199.702 217.192 201.658 217.384C203.615 217.575 204.612 219.666 206.415 220.088C208.218 220.51 210.251 218.745 211.958 217.345C213.665 215.945 216.465 215.101 217.597 216.923C218.268 218.017 217.866 219.551 218.556 220.625C219.784 222.543 222.68 221.335 224.463 220.011C226.247 218.688 229.124 217.48 230.371 219.321C230.69 219.927 230.928 220.572 231.081 221.239C231.925 223.694 234.571 224.902 236.624 226.475C238.676 228.048 240.325 231.174 238.542 233.092C237.679 234.032 236.163 234.416 235.741 235.624C235.204 237.12 236.739 238.482 237.966 239.46C239.884 241.167 240.345 246.326 237.678 247.746C236.547 248.34 234.897 248.513 234.629 249.76C234.36 251.006 235.511 251.678 236.259 252.579C236.729 253.187 237.061 253.889 237.235 254.637C237.408 255.385 237.417 256.162 237.262 256.914C237.108 257.666 236.792 258.376 236.338 258.995C235.883 259.614 235.3 260.127 234.629 260.5C233.977 260.807 233.19 261.076 232.941 261.747C232.85 262.25 232.903 262.769 233.094 263.243C233.366 264.17 233.457 265.14 233.363 266.101C233.364 266.434 233.241 266.755 233.018 267.002C232.763 267.173 232.461 267.26 232.155 267.252C228.319 267.424 226.401 266.043 224.061 269.419C223.865 269.762 223.589 270.052 223.255 270.263C222.931 270.439 222.569 270.532 222.2 270.531C219.534 270.762 217.789 269.093 215.372 268.786C211.996 268.364 211.287 270.09 208.314 271.49C203.672 273.85 201.39 272.488 200.527 269.304Z" fill="#EBEBEB"/>
<path id="Vector_35" d="M177.396 284.897C177.155 283.995 177.014 283.069 176.974 282.135C176.629 276.381 171.22 277.321 166.502 276.535C162.877 275.921 172.505 266.734 165.178 263.78C163.746 263.389 162.492 262.515 161.63 261.306C161.263 260.406 161.221 259.406 161.512 258.478C161.802 257.551 162.407 256.753 163.222 256.223C164.904 255.218 166.846 254.731 168.803 254.823C169.992 253.385 169.014 251.198 167.863 249.702C166.713 248.206 165.293 246.537 165.734 244.696C166.386 241.934 170.242 241.838 173.042 242.375C173.833 240.544 174.343 238.604 174.557 236.621C175.056 234.703 176.475 232.785 178.508 232.958C180.541 233.13 181.462 235.259 183.265 235.681C185.356 236.18 187.101 234.339 188.808 232.939C190.515 231.539 193.315 230.695 194.447 232.517C195.118 233.61 194.715 235.144 195.425 236.218C196.633 238.136 199.53 236.928 201.332 235.605C203.135 234.281 205.974 233.073 207.24 234.914C207.552 235.521 207.784 236.166 207.93 236.832C208.774 239.287 211.421 240.496 213.493 242.068C215.564 243.641 217.175 246.767 215.411 248.685C214.547 249.625 213.051 250.009 212.61 251.217C212.073 252.713 213.627 254.056 214.835 255.053C216.868 256.779 217.233 261.939 214.547 263.358C213.435 263.934 211.786 264.125 211.498 265.372C211.21 266.619 212.38 267.29 213.128 268.192C213.601 268.798 213.936 269.5 214.111 270.249C214.286 270.997 214.297 271.775 214.141 272.529C213.986 273.282 213.67 273.992 213.213 274.611C212.757 275.23 212.172 275.742 211.498 276.113C210.846 276.42 210.059 276.688 209.829 277.36C209.728 277.862 209.781 278.384 209.983 278.856C210.238 279.785 210.323 280.754 210.232 281.713C210.24 282.048 210.116 282.372 209.887 282.615C209.638 282.783 209.343 282.87 209.043 282.864C205.207 283.037 203.289 281.656 200.949 285.032C200.747 285.37 200.472 285.659 200.143 285.875C199.812 286.05 199.444 286.142 199.069 286.144C196.422 286.374 194.677 284.705 192.241 284.399C188.865 283.977 188.156 285.703 185.183 287.103C180.541 289.443 178.374 288.081 177.396 284.897Z" fill="#EBEBEB"/>
<path id="Vector_36" d="M184.416 304.614C184.416 304.614 194.006 318.29 197.42 322.624C200.834 326.959 217.444 354.003 219.726 371.879C219.956 373.797 220.206 375.427 220.436 376.865C213.262 424.24 214.375 510.914 214.682 525.76H237.41C237.621 509.016 239.558 356.055 240.268 351.394C240.977 346.734 250.529 327.63 265.202 319.901C279.875 312.171 292.572 286.585 292.572 286.585H287.892C287.892 286.585 279.203 302.274 266.794 310.944C265.017 312.17 263.159 313.272 261.232 314.243C261.263 304.804 259.6 295.436 256.321 286.585L253.847 289.021C257.261 302.984 256.82 312.037 255.765 317.081C251.116 319.217 246.816 322.043 243.011 325.463C230.198 308.815 223.006 270.723 223.006 270.723L219.726 272.507C220.652 280.375 222.068 288.177 223.965 295.868C226.362 305.727 233.421 324.293 236.7 332.713C232.807 338.373 229.589 344.469 227.11 350.876C226.759 350.334 226.34 349.837 225.864 349.4C217.444 341.919 201.774 306.283 201.774 306.283C197.938 297.997 203.692 276.247 203.692 276.247H199.472L197.554 295.254L186.41 283.267L184.492 284.936L196.173 299.954L202.176 318.98L186.487 301.622L184.416 304.614Z" fill="#E6E6E6"/>
<path id="Vector_37" d="M847.2 590.607L111.8 590.607V567.745C111.8 565.75 112.193 563.775 112.957 561.932C113.72 560.089 114.839 558.414 116.249 557.003C117.66 555.593 119.335 554.474 121.178 553.711C123.021 552.947 124.996 552.554 126.991 552.554L832.028 552.554C836.057 552.554 839.921 554.155 842.77 557.003C845.619 559.852 847.219 563.716 847.219 567.745V590.607H847.2Z" fill="#E0E0E0"/>
</g>
</g>
<defs>
<clipPath id="clip0_25_222">
<rect width="1440" height="900" fill="white" transform="translate(-609.168 -275.943)"/>
</clipPath>
</defs>
</svg>
