<svg width="69" height="525" viewBox="0 0 69 525" fill="none" xmlns="http://www.w3.org/2000/svg">
<g id="login">
<g id="freepik--Streetlight--inject-65">
<path id="Vector" d="M57.3865 20.2541L50.827 83.2604H17.9908L11.4313 20.2541H57.3865Z" fill="#263238"/>
<path id="Vector_2" opacity="0.3" d="M57.3865 20.2541L50.827 83.2604H17.9908L11.4313 20.2541H57.3865Z" fill="white"/>
<path id="Vector_3" d="M40.5082 69.7193H28.2905V524.094H40.5082V69.7193Z" fill="#263238"/>
<path id="Vector_4" opacity="0.3" d="M40.5082 69.7193H28.2905V524.094H40.5082V69.7193Z" fill="white"/>
<path id="Vector_5" d="M47.3745 79.4244H21.4432L15.6892 24.0901H53.1285L47.3745 79.4244Z" fill="#8F8221"/>
<path id="Vector_6" opacity="0.4" d="M47.3745 79.4244H21.4432L15.6892 24.0901H53.1285L47.3745 79.4244Z" fill="white"/>
<path id="Vector_7" d="M30.9948 80.2875H29.2303L27.3123 22.1721H29.0768L30.9948 80.2875Z" fill="#263238"/>
<path id="Vector_8" opacity="0.3" d="M30.9948 80.2875H29.2303L27.3123 22.1721H29.0768L30.9948 80.2875Z" fill="white"/>
<path id="Vector_9" opacity="0.2" d="M57.3866 20.2541L50.827 83.2604H30.1893L27.7151 20.2541H57.3866Z" fill="white"/>
<path id="Vector_10" d="M34.4089 0C34.4089 0 14.922 19.18 0 19.18L4.64153 22.2296H64.0995L68.7219 19.18C53.8766 19.2184 34.4089 0 34.4089 0Z" fill="#263238"/>
<path id="Vector_11" opacity="0.4" d="M68.7986 19.2184L64.1762 22.2489H4.71825L0.0383301 19.2184C14.9604 19.2184 34.4281 0.0384216 34.4281 0.0384216C34.4281 0.0384216 53.8766 19.2184 68.7986 19.2184Z" fill="white"/>
<path id="Vector_12" opacity="0.2" d="M68.7987 19.2184L64.1763 22.2488H25.5094C24.3395 20.3308 23.5914 18.969 23.5914 18.969C33.9678 14.1548 34.4857 0 34.4857 0C34.4857 0 53.8767 19.2184 68.7987 19.2184Z" fill="white"/>
<path id="Vector_13" d="M23.9175 515.693H44.9004C46.1569 515.693 47.3619 516.192 48.2503 517.08C49.1388 517.969 49.6378 519.174 49.6378 520.43V524.094H19.2184V520.43C19.2183 519.18 19.7122 517.981 20.5924 517.094C21.4725 516.206 22.6677 515.703 23.9175 515.693Z" fill="#263238"/>
<path id="Vector_14" opacity="0.5" d="M23.9175 515.693H44.9004C46.1569 515.693 47.3619 516.192 48.2503 517.08C49.1388 517.969 49.6378 519.174 49.6378 520.43V524.094H19.2184V520.43C19.2183 519.18 19.7122 517.981 20.5924 517.094C21.4725 516.206 22.6677 515.703 23.9175 515.693Z" fill="white"/>
</g>
</g>
</svg>
